<?xml version="1.0" encoding="UTF-8"?>
<svg id="Ebene_1" xmlns="http://www.w3.org/2000/svg" version="1.1" viewBox="0 0 25.92 42.24">
  <!-- Generator: Adobe Illustrator 29.8.3, SVG Export Plug-In . SVG Version: 2.1.1 Build 3)  -->
  <defs>
    <style>
      .st0 {
        fill: #293133;
      }
    </style>
  </defs>
  <path class="st0" d="M20.16,20.4c1.59.18,3.61-.47,5.12.04.53.18.78,1.14.54,1.64-2.02,3.96-3.48,8.21-5.7,12.06-.93,1.61-2.14,3.16-3.11,4.8-.73,1.24-.93,3.29-2.71,3.3-.9,0-1.36-.34-1.91-1-1.22-1.48-3.12-4.85-4.17-6.62C5.43,29.87,3.13,24.85,0,20.29c-.06-.53.07-.29.37-.35,2.09-.42,4.25-.28,6.35,0-.1-5.31.14-10.64,0-15.95-.05-2.13-.95-3.68,2.26-3.95,2.15-.19,5.09.3,7.46.26,1.47-.02,3.29-.87,4.4.62l-.69,19.51v-.03Z"/>
</svg>