<?xml version="1.0" encoding="UTF-8"?>
<svg id="Ebene_1" data-name="Ebene 1" xmlns="http://www.w3.org/2000/svg" viewBox="0 0 52.07 50.58">
  <defs>
    <style>
      .cls-1 {
        fill: #404040;
      }

      .cls-2 {
        fill: #d5d5d8;
      }

      .cls-3 {
        fill: #111;
      }

      .cls-4 {
        fill: #d7d6d9;
      }

      .cls-5 {
        fill: #cfc5b9;
      }

      .cls-6 {
        fill: #d7d7da;
      }

      .cls-7 {
        fill: #3c3c3c;
      }

      .cls-8 {
        fill: #363636;
      }

      .cls-9 {
        fill: #f5f5f6;
      }

      .cls-10 {
        fill: #e2e2e2;
      }

      .cls-11 {
        fill: #1c1c1c;
      }

      .cls-12 {
        fill: #e4e4e4;
      }

      .cls-13 {
        fill: #f6f6f6;
      }

      .cls-14 {
        fill: #e2e1e3;
      }

      .cls-15 {
        fill: #c6c5ca;
      }

      .cls-16 {
        fill: #1e1e1e;
      }

      .cls-17 {
        fill: #1d1d1d;
      }

      .cls-18 {
        fill: #3e3e3e;
      }

      .cls-19 {
        fill: #070706;
      }

      .cls-20 {
        fill: #4d4d4d;
      }

      .cls-21 {
        fill: #3a3a3a;
      }

      .cls-22 {
        fill: #757575;
      }

      .cls-23 {
        fill: #c9c9cd;
      }

      .cls-24 {
        fill: #dbdadd;
      }

      .cls-25 {
        fill: #dddcdf;
      }

      .cls-26 {
        fill: #d9d8db;
      }

      .cls-27 {
        fill: #060606;
      }

      .cls-28 {
        fill: #717171;
      }

      .cls-29 {
        fill: #dddde0;
      }

      .cls-30 {
        fill: #b0b0b0;
      }

      .cls-31 {
        fill: #efeef0;
      }

      .cls-32 {
        fill: #7d7d7d;
      }

      .cls-33 {
        fill: #d7d6da;
      }

      .cls-34 {
        fill: #d2d2d5;
      }

      .cls-35 {
        fill: #040404;
      }

      .cls-36 {
        fill: #c7c6cb;
      }

      .cls-37 {
        fill: #bbb;
      }

      .cls-38 {
        fill: #da943b;
      }

      .cls-39 {
        fill: #e1e1e3;
      }

      .cls-40 {
        fill: #e1e0e3;
      }

      .cls-41 {
        fill: #282828;
      }

      .cls-42 {
        fill: #d5d4d8;
      }

      .cls-43 {
        fill: #fefefe;
      }

      .cls-44 {
        fill: #1c1a17;
      }

      .cls-45 {
        fill: #1c1c1b;
      }

      .cls-46 {
        fill: #424242;
      }

      .cls-47 {
        fill: #d8d8db;
      }

      .cls-48 {
        fill: #838383;
      }

      .cls-49 {
        fill: #e3e3e5;
      }

      .cls-50 {
        fill: #fcfcfc;
      }

      .cls-51 {
        fill: #cdccd0;
      }

      .cls-52 {
        fill: #c5c4c9;
      }

      .cls-53 {
        fill: #090909;
      }

      .cls-54 {
        fill: #555;
      }

      .cls-55 {
        fill: #161616;
      }

      .cls-56 {
        fill: #4c4c4c;
      }

      .cls-57 {
        fill: #3b3a38;
      }
    </style>
  </defs>
  <path class="cls-19" d="M24.43,25.92c.29.26.33.71.13,1.34.5-.12.67.07.59.58.09.55-.47.92-.96.96-.59.65-1.39-.25-1.43-1-3.13,2.46-6.23,5.03-9.29,7.69.77,1.52,2.18,2.38,4.22,2.58l.26.57c.63-.48,1.89-.18.72.72l.07.26c-.48.05-.82.26-1.03.7-.14.1-.38.15-.48.24-.57.66-1.1.53-.96-.24-.08-.25-.08-.49,0-.72-2.05-.07-3.58-1.14-4.7-2.82-.48.78-1.08.97-1.93,1.13l-1.1,1.1c-.53.61-.99.72-1.39.34-.45-.1-.37-.42.24-.96.17-.09.3-.16.48-.24.2-.26.44-.5.72-.72.15-.13.26-.29.48-.48.51-.26.83-.5.96-.72.22-.52,4.67-3.87,5.52-4.56.65-.15,1.05-.47,1.2-.96,1.99-1.58,3.73-2.87,5.69-4.16.23-.15.76-1.05,1.03-1.12,1.04-1.46,2.66.33.96.48Z"/>
  <path class="cls-43" d="M30.91,25.68c-.33-.99-.44-2.24-.84-3.12-.31-.67-1.19-1.23-1.29-1.61-.62-2.34,2.36-.94,3.23.15.64.81.57,2.21.9,3.07.2.53,2.1,1.15,2.55,1.41.19.11.21.49.29.54.35.21,4.06-.5,4.76-.44.8.63-.99,2-1.68,1.44-.33-.01-.65-.09-.96-.24-.53.8-2.81.21-3.36-.48-.17.06-.17.22,0,.48.59-.04,2,.15,2.16.72-.66,2.1-1.66.25-2.41-.11-.48-.23-1.57-.18-1.85-.43-.45-.4.24-1.32-1.5-1.39.22.67,1.07.99-.24,1.68-.53-.1-.67-.75-.48-1.2.12-.1-.35-.52.72-.48Z"/>
  <path class="cls-53" d="M6.91,39.36c.76.21.42.88-.1,1.29-1.27.44-5.05,4.59-4.88,5.63.07.41,2.3,2.12,2.8,2.41.19.11.26.3.26.51,2.59-.11,1.81,1.69-.23,1.04l-.73.16c-.08,0-.16.01-.24,0l-.43-.27c-.43-.02-1.21-.44-1.73-1.17-.28-.34-.92-.61-1.08-.96-.1-.22-.58-2.54-.55-2.71.07-.33.33-.6.42-.89.07-.35.31-.67.72-.96,1.43-.87,3.02-2.83,4.8-4.08.42-.12.74-.12.96,0Z"/>
  <path class="cls-27" d="M26.11,24.72c.39.28.73.29,1.2.24.23.09,1.57.69,1.63.76.13.14-.59.82.77.44.43.03.63,1.05.61,1.44-.03.5-1.49,3.46-1.77,3.54-.21.06-.64-.22-.76-.42-.3.37-.62.29-.96-.24-.97-.28-1.92-.66-2.84-1.16l.2-.52c.14-.56.4-.82.96-.96.93.44,1.89.68,2.88.72.14-.56.1-.95-.24-1.44-.61.35-.89-.14-.72-.72-.57.14-.97.06-1.2-.24-.57-.25-1.57-1.24-.72-1.44.08,0,.16,0,.24,0,.16-.6.56-.59.72,0Z"/>
  <path class="cls-14" d="M36.67.48c2.57,1.95,3.85,4.52,5.51,7.09.55.85.91-.02.77,1.19,0,.08.74.24.44.84.47,1.17-.51.7-.96,0-.29.28-1.39-.8-1.2-1.2l.17-.34c-1.19-1.52-2.31-3.12-3.34-4.81l-.34-.09c-.29-.74-.72-1.39-1.29-1.97-.19-.06-.19-.14,0-.24-.42-.19-.23-.6.24-.48Z"/>
  <path class="cls-45" d="M15.79,40.8c.55-.5,1.13.09.48.72-.96.71-1.13,1.2-1.73,1.85-.11.12-2.01,1.24-2.59,1.75.03.25-.13.49-.48.72-.15.08-1.17.66-1.2.72-.43.49-.55.4-.48-.24-.18-.09-.33-.23-.37-.44-.05-.25,3.06-3.18,3.62-3.64.65-.53,2.01-1.52,2.75-1.44Z"/>
  <path class="cls-50" d="M30.19,26.16c.3.34.41.77.48,1.2.02.13.22.27.19.56-.02.18-.17.3-.19.4v.96c-.53,1.16-.88.71-.92.77-.13.17-.03.77-.4.91-.24.09,0-.55-.24-.48-.28.09-.05,1.55-1.32.48-.21-.07-.21-.15,0-.24.23.08.47.12.7.23.49-.67.51-1.54.77-2.2.07-.19.38-.19.44-.38.2-.64.23-1.55.02-2.21.14-.04.43.05.48,0Z"/>
  <path class="cls-29" d="M36.19,15.12c1,.85,2.12,2.08,2.71,3.37.07.16-.07.44-.05.45.16.1.58-.05.7.02.08.04-.24.41-.24.57s.39.14.46.33c.13.32.13.76.25,1.02.2.74-.2.58-.72.24-.14.47-.35.47-.48,0-.37-.14-.45-.3-.24-.48l-.05-.6c-.55-.32-.8-.85-.73-1.6-.7-.25-.85-.58-.86-1.28-1.03-.48-1.45-1.01-1.24-1.56-.09-.67.07-.83.48-.48Z"/>
  <path class="cls-24" d="M29.71,8.88c.09.07,1.05.06,1.38.31.19.14.19.55.3.65,0,.5-.2.34-.48,0-.21.82.11,1.68.94,2.57l-.22.55c.18.68-.3.78-.72.24-.27-.35-.86-1.41-1.2-1.68-.33-.1-.3-.28,0-.48-.2-.2-.42-.43-.24-.72-.11-.23-.32-.51-.48-.72-.38-.46.24-1.03.72-.72Z"/>
  <path class="cls-24" d="M49.15,22.56c-.23.19-.32.06-.24-.24-.08-.37-.16-.77-.24-1.2-.43-1.25-.68-2.33-1.2-3.6-.13-.63-.21-1.23.48-.72.31,1.54,1.88,3.83,1.6,5.37-.05.28-.39.35-.4.39Z"/>
  <path class="cls-34" d="M42.43,9.6c.05.04.4-.51.96.48v-.48h.24c.11.3.27.54.48.72.41.72.67,1.28.96,1.92.14.62-.02.67-.48.24-.39-.48-1.85-1.84-2.4-2.4-.41-.47-.33-.63.24-.48Z"/>
  <path class="cls-17" d="M25.87,32.64c-.34.26-.37.27-.72.48-.19.41-.55.88-.96.96l-2.16,2.16c-.22-.45.02-1.01.72-1.68-.6-.99,1.69-2.65,2.64-2.4.84-.64,1.08-.36.48.48Z"/>
  <path class="cls-49" d="M41.23,23.76c.03.58.05,1.34,0,1.92.84.98-.72,2.15-1.68,1.92-.03.02-.34,0-.72.24-.37.48-.56.35-.48-.24-.51-.46-.05-.93.48-.48,1.09-.45,1.4-.24,1.68-1.44.1-.42-.01-.54,0-.72l-.24-.72c.03-.32.13-.31.24-.48.23-.16.74-.42.72,0Z"/>
  <path class="cls-47" d="M41.23,8.4c.38.33,1.13,1.15,1.2,1.2l-.24.48c-1.14-1.15-2.24-2.02-3.36-3.12-.32-.34-.18-.46.24-.24.67-.63,2.99,1.05,2.16,1.68Z"/>
  <path class="cls-36" d="M45.07,12.24c.31.35.63.67.96.96.18.04.78.36.96.48.34.41.42.73.24.96.18.08.18.16,0,.24l-.03.41c1.04.48.51,2.1-.21,1.03-.23-.47-.45-.73-.72-1.2-.14-.65-.46-1.13-.96-1.44-.18-.24-.53-.96-.72-1.2.14-.04.37-.24.48-.24Z"/>
  <path class="cls-39" d="M36.91,3.6c.72-.31,1.33.28,1.85,1.76.91.03,1.16,1.07.31,1.36l-.24.24s-.29.05-.4-.07c-.93-.93-1.15-1.68-1.76-2.81-.18-.45-.1-.61.24-.48Z"/>
  <path class="cls-26" d="M31.39,9.84c.8.8,1.25,1.21,2.05,2.16.32.38,1.08-.03.83.96-.07.12-.15.12-.24,0-.13,1.01-1.39.28-1.42-.6-.52-.39-1.92-1.45-1.96-2.07-.01-.2.11-.34.26-.45.14-.03.33.02.48,0Z"/>
  <path class="cls-43" d="M37.15,20.64c.51-.33,1.27.02,1.68.48.14.02.33,0,.48,0,.77.13.83.24.96.96.29.33.2.63-.24.48-.36-.43-1.07-.38-1.42-.62-.25-.17-.46-.82-.61-.82-.09,0-.43.72-1.08.37-.56-.3-.37-.93-.48-1.09.15-.36.64-.09.72.24Z"/>
  <path class="cls-6" d="M47.71,23.52c.48.16.15.36-.24.48.06.36-.17.35-.48.24-.11.08-.25.32-.24.48h-.23c.12-.83-.76-.35-1.31-.49-.34-.09-1.04-.32-1.34-.47-.56-.42-.49-.92.24-.96,1.43.63,1.77.97,3.6.72Z"/>
  <path class="cls-31" d="M37.87,26.88c.51-.16.59.08.24.72.2.63-.36.77-.72.24-.27-.37-.41-.18-.72-.24-1.09-.2-1.21-.32-2.16-.72-.36-.25-.47-.41,0-.48,1.14.49,2.16.45,3.36.48Z"/>
  <path class="cls-43" d="M41.23,25.68c1.62,1.05.2,1.84-.98,2.26-.47.17-.8.38-.7-.34.82-.54,1.59-.91,1.68-1.92Z"/>
  <path class="cls-11" d="M22.03,36.24c-.06.08-.55.54-.72.72l-.96.72h-.24c-.45-.12-.43-.33,0-.48-.62-.88,1.71-2.97,2.64-2.64-.16.5-.24,1.03-.72,1.68Z"/>
  <path class="cls-1" d="M27.79,30.72v.24c-.7.61-1.33,1.23-1.92,1.68v-.72s-.48.24-.48.24c-.33-.15.56-1.61.69-1.72.25-.22.44-.15.75.04.62-.34.56.11.96.24Z"/>
  <path class="cls-25" d="M36.43,1.2c.58.51,1.68,2.35.48,2.4-.06.17-.17.32-.24.48-.08-.15-.63-1.02-.64-1.09-.17-.73-.14-1.05-.08-1.79.08-.42.19-.64.48-.24-.01.07,0,.17,0,.24Z"/>
  <path class="cls-4" d="M31.63,12.96c1.02.21,1.9,1.89,1.68,2.88,0,.5-.18.32-.48,0-.81-.4-1.66-.89-1.44-1.92-.17-.23-.31-.49-.48-.72l.72-.24Z"/>
  <path class="cls-43" d="M32.83,15.84c.41.13.85.67.48.96-1.66.36-.63-.89-.72-.96-.31-.24-2.29.07-1.2-1.92.43.61,1.05,1.21,1.44,1.92Z"/>
  <path class="cls-25" d="M41.95,22.08c.59.33.4.61-.24.48-.21-.08-.36-.19-.48-.24l-.34.22c.28,1.03.15,1.35-.38.98-.06-.27-.47-.75-.48-.96,0-.09.2-.33.24-.48-.4-.46-.53-.72.24-.72.17.1,1.36.69,1.44.72Z"/>
  <path class="cls-33" d="M35.95,19.2c.39-.3.92-.08,1.6.64.65-.17,1.32.09,1.04.8.1.12.14.34.24.48-.45-.06-1.13-.34-1.68-.48-.19-.31-.51-.47-.96-.48-.1-.15-.45-.69-.48-.72-.29-.32-.16-.44.24-.24Z"/>
  <path class="cls-16" d="M7.39,48.96c.29.31.15.43-.24.24,0,.23-.08.47-.24.72-1.41.9-1.14.69-2.88.48,1.25-1.22.69-.41,1.3-.19.39.14.72.01,1.1-.05.12-.15-1.12-1.39-.96-.24l-.48-.72c.15-.35.55-.56,1.2-.64.42-.77.82-.96,1.2-.56.18.22.49.91,0,.96Z"/>
  <path class="cls-8" d="M1.63,48.96h1.44s-.72.72-.72.72c.62.23,1.72-.38,1.44.72-2.33-.4-1.21-.29-2.16-1.44Z"/>
  <path class="cls-18" d="M19.39,37.92c.47-.09.51.11.24.48-.46.53-.02.36-.96.96,0-.08.32-.42.24-.48-.04-.03-.7-.16-.96-.24-1.19-.66.43-1.14,1.2-.96.24-.08.32,0,.24.24Z"/>
  <path class="cls-6" d="M42.91,22.08l.72.48c.16.08.32.17.48.24l-.24.96c-.76-.39-.99-.75-2.16-1.2l.24-.48c.23.07.68-.05.96,0Z"/>
  <path class="cls-2" d="M34.75,12.96c.11.28.27.52.48.72.67,1.12.8.57.96.72.11.1-.33.44,0,.72l-.48.48c-.64-.12-.61-.3,0-.48l-.72-.72c-.59.44-1.43-.93-.96-1.44h.24c.15.03.36-.04.48,0Z"/>
  <path class="cls-50" d="M47.23,14.88c.27.01.65.2.72.48.63.21.63.48,0,.72,0,.22-.04.53,0,.72-.34.1-.48.37-.48.72-.13-.32-.38-.99-.48-1.2,1.74.15-.57-1.05-.24-1.44.14-.04.4.04.48,0Z"/>
  <path class="cls-57" d="M9.79,46.32c.12,0,.33.2.48.24-.01.03.29.45.24.48h-.73s.24.48.24.48c-.2.06-.6-.06-.72,0-.67.44-.99.36-.96-.24-.55-.72.95-1.9,1.44-.96Z"/>
  <path class="cls-40" d="M33.31,15.84c.75-.33,2.6,1.93,1.2,1.92.62-.73,3.12,1.31,1.44,1.44l-.24.24c-.09-.08-.58-.06-.89-.31-.19-.16-.43-.84-.55-.89-.28-.31-.1-.4.24-.48-.41.5-.96.24-.96-.48-.05-.16-.18-.32-.24-.48-.13-.32-.31-.66-.48-.96h.48Z"/>
  <path class="cls-52" d="M49.15,15.6c.04.17.12.49.24.96-.07.22-.15.21-.24,0-.55,0-.61.04-.88-.47h-.32c0-.23-.04-.54,0-.73-.31-.34-.17-.44.24-.24.34.17.62.2.96.48Z"/>
  <path class="cls-51" d="M50.59,17.04c.52.59.6,1.2.72,1.44.6.34.23,1.03-.24.48-.14-.22-.5-.47-.72-.72-.16-.2-.24-.55,0-.72-.54-.38-.41-.58.24-.48Z"/>
  <path class="cls-42" d="M49.15,22.56c-.07.19.12.63-.05.9-.16.26-.95.4-1.15.54-.11.35-.36.38-.48,0l.24-.48c.12-.02.33-.18.48-.24.34-.21.47-.32.48-.72,0-.08,0-.16,0-.24.07-.21.15-.21.24,0l.24.24Z"/>
  <path class="cls-55" d="M9.31,47.52c-.06.03-.93.89-.96.96-.25.04-.49-.12-.72-.48-.56-.48.15-1.08.72-.72l.96.24Z"/>
  <path class="cls-43" d="M28.99,9.6c-.2-.26-.93-.35-.13-.97.97-.76.8.21.85.25l-.72.72Z"/>
  <path class="cls-43" d="M38.35,27.6c.16.05.32.18.48.24-.18.12-.29.73-.84.73-.62,0-.46-.54-.6-.73.25.01.53-.21.72-.24.06-.21.14-.21.24,0Z"/>
  <path class="cls-15" d="M50.59,17.04c-.05.15-.23.35-.24.48-.07.21-.15.21-.24,0-.56-.13-.83-.4-.96-.96.08,0,.18.02.24,0-.12-.37-.1-.46.24-.24.25.24.76.49.96.72Z"/>
  <path class="cls-44" d="M7.15,39.36c-.08.21-.16.21-.24,0-.3.11-.77.48-.96,0,.52-.36.84-.64,1.44-.96l-.24.96Z"/>
  <path class="cls-3" d="M25.15,24.72l-.24.47c.55.06.95.4.96.97.21.07.21.15,0,.24.23.56-.05.63-.48.24-.38.12-.7-.12-.96-.72.14-.34.79-.73.12-.96-.53-.18-.39.65-.71.71-.05.01-.28-.26-.36-.23.04-1.01.97-.68,1.68-.72Z"/>
  <path class="cls-21" d="M17.23,40.56c-.36.33-.29.46-.96.96,0-.57.16-.83-.48-.72-.33-.34-.23-.54.24-.48.07-.21.15-.21.24,0,.19.5.55.58.96.24Z"/>
  <path class="cls-50" d="M41.23,22.32c-.44.25-.03.96,0,1.44h-.72c.04-.06-.04-.2,0-.24.05-.05.46.12.48-.11l-.48-1.33c.42-.17.58.18.72.24Z"/>
  <path class="cls-43" d="M26.11,24.72c-.23-.02-.48,0-.72,0l-.24-.72c1.21-.47.72.22.96.72Z"/>
  <path class="cls-23" d="M40.51,21.36c-.14.22-.17.47-.24.72-.81.13-.24-.29-.35-.48-.21-.34-.79.34-.61-.48.25-.01.5-.12.72-.24.14.28.21.33.48.48Z"/>
  <path class="cls-28" d="M25.15,33.12c.07.61-.39,1.44-.96.96.15-.79.54-.71.96-.96Z"/>
  <path class="cls-7" d="M15.55,31.68c.4-.33.79-.64,1.2-.96.56.63-.55.96-1.2.96Z"/>
  <path class="cls-52" d="M45.07,12.24c.42,0,.95.48.96.96-.02,0-.28.35-.44.23-.13-.09-.41-.95-.52-1.19Z"/>
  <path class="cls-50" d="M47.95,14.88c-.18.38-.62.11-.72-.24-.04-.18-.43-.56-.24-.96.5.34.76.61.96,1.2Z"/>
  <path class="cls-43" d="M33.55,17.28c.21.6.65.37.96.48-.03.1.03.23,0,.36l-.24.12c-.14-.06-.6.1-.7-.01-.13-.14.05-.71-.02-.95Z"/>
  <path class="cls-20" d="M18.67,39.36c0,.08.33.42.24.48-.07.04-.43-.08-.65.07s-.5.38-.56.42c-.03-.68.55-.7.96-.96Z"/>
  <path class="cls-50" d="M36.67.48c-.05.16-.22.34-.24.48l-.48.24c.03-.33-.16-.65.24-1.2h.23c.03.17.11.38.25.48Z"/>
  <path class="cls-56" d="M1.15,43.44c-.02.47-.3.78-.72.96.01-.04-.3-.3-.03-.61s.57-.24.75-.35Z"/>
  <path class="cls-44" d="M9.07,36.96c.05-.04.07-.73.96-.72,0,.01.27-.02.24.12-.08.33-.81.7-1.2.6Z"/>
  <path class="cls-54" d="M7.63,48c.45,0,.5.11.72.48-.01.03.4.29-.24.48-.53-.07-.75-.54-.48-.96Z"/>
  <path class="cls-27" d="M8.11,48.96c-.08.02-.18-.03-.24,0-.11.38-.46.45-.48,0v-.96c.05-.22.13-.22.24,0-.05.34.3.69.48.96Z"/>
  <path class="cls-50" d="M47.47,24c.14-.03.33.02.48,0-.06.04.07,1.05-.96.24.21-.15.14-.17.48-.24Z"/>
  <path class="cls-49" d="M51.79,18.72c.09.35.19.76-.24.72-.23-.1-.46-.2-.71-.27,0-.1.23-.2.23-.21.64.04.55.01.24-.48.01.02.31.04.48.24Z"/>
  <path class="cls-50" d="M48.91,22.32h-.24c-.03-.4-.25-.82,0-1.2.05.15.76.49.24,1.2Z"/>
  <path class="cls-3" d="M27.31,24.96c-.54.34-.91.37-1.2-.24.63.05.61,0,1.2.24Z"/>
  <path class="cls-52" d="M47.95,14.88c.08.04.15.2.24.24-.05.09-.23.19-.24.24-.35,0-.62-.14-.72-.48.01,0,0-.2,0-.24.2.16.53.15.72.24Z"/>
  <path class="cls-44" d="M8.59,37.44l.24.48c-.35-.02-.65.11-.96.24-.12-.7.58-.6.72-.72Z"/>
  <path class="cls-35" d="M20.35,37.68c-.24.26-.55.52-.72.72-.09-.15-.14-.33-.24-.48.02-.34.52-.58.72-.24.08-.02.18.02.24,0Z"/>
  <path class="cls-50" d="M49.63,16.32c-.05.1-.14.21-.24.24l-.47-.84.23-.12c.3.24.36.61.48.72Z"/>
  <path class="cls-41" d="M21.31,36.96c-.46.47-.22.43-.96.72.28-.3.36-.75.96-.72Z"/>
  <path class="cls-32" d="M11.47,45.84c-.04-.47.24-.51.48-.72.52.67-.11.52-.48.72Z"/>
  <path class="cls-10" d="M30.67,29.28c-.62-.28-.03-.81,0-.96.22.42.18.56,0,.96Z"/>
  <path class="cls-50" d="M45.31,13.68h.72s.24,1.44.24,1.44c-.19-.34-.71-1.09-.96-1.44Z"/>
  <path class="cls-22" d="M7.87,48.96c.04.48-.22.51-.48.72-.44.23-.48-.11-.24-.48.08-.07.21-.23.24-.24.12-.05.36.05.48,0Z"/>
  <path class="cls-43" d="M36.19,20.16c.43-.28,1.12-.11.96.48-.22-.06-.46-.24-.72-.24-.05-.07-.17-.14-.24-.24Z"/>
  <path class="cls-50" d="M51.79,18.72c.39.46.4,1.14-.12.96-.07-.02-.07-.21-.12-.24l.24-.72Z"/>
  <path class="cls-50" d="M44.11,10.32c-.64.11-.49-.15-.48-.72.45.02.37.53.48.72Z"/>
  <path class="cls-43" d="M40.27,24.24c.93-.11.26.36.24.72-.29-.1-.27-.47-.24-.72Z"/>
  <path class="cls-50" d="M29.71,11.04c-.18.43-.38.13-.48-.24,0-.2.02-.41.24-.48.15.31.22.25.24.72Z"/>
  <path class="cls-50" d="M48.19,23.28l.48-.72c0,.11.31.27.14.49s-.44.16-.62.23Z"/>
  <path class="cls-50" d="M50.35,18.24c-.18-.21-.61-.17-.24-.72h.24c0,.13.29.46,0,.72Z"/>
  <path class="cls-43" d="M29.71,11.04c0,.16,0,.32,0,.48-.19-.15-.51.42-.48-.72l.48.24Z"/>
  <path class="cls-50" d="M35.23,13.68c-.57.1-.54-.22-.48-.72.54.18.35.51.48.72Z"/>
  <path class="cls-50" d="M43.63,22.56s-.49.29-.72-.48c.35.07.6.07.72.48Z"/>
  <path class="cls-50" d="M7.39,49.68c-.12.1-.33.15-.48.24l-.23-.12c.13-.23.28-.43.47-.6l.24.48Z"/>
  <path class="cls-38" d="M7.15,39.36c1.19-.52,1.61-1.41,2.23-1.85.31-.21.85-.16,1.21-.36.4-.22.52-.97,1.21-.89,1.37,1.78,1.58,2.23,3.73,2.78.36.09.9.03.74.55.12.27.15.63-.24.72-.06.16-.16.33-.24.48-.35.62-2.04,1.38-2.56,1.91-.43.44.15.16-.77.87-.74.57-1.37,1.18-1.96,1.72-.25.23-.7.66-.72,1.02-.7-.05-1.01.49-1.44.96-.13.14-.71.67-.72.72-.08,0-.19-.02-.24,0-.85.32-.31,1.34-2.4,1.2-1.22-.08-1.36-.73-2.11-1.44-.55-.52-1.12-.35-1.41-1.36-.22-.76.38-1.24.72-1.77.83-1.25,2.07-2.72,3.53-3.94.5-.42,1.21-.24,1.19-1.33.07-.03.17.03.24,0Z"/>
  <path class="cls-13" d="M17.95,38.64c-.91-.29-3.22-.74-3.83-1.33-.43-.42-.39-.73-.64-1.05-.32-.42-.82-.39-.82-1.22,1.01.27,1.22-.66,1.83-1.18,2.04-1.76,4.33-3.39,6.5-5.13.59-.48.87-1.69,2.23-1.36-.01,1.16.27.95.96,1.44.12.09.18.35.44.47.68.32,1.75-.02,2.2,1.21-.95.53-.45.89-.49.95s-.64.46-.95.73c-.76.68-2.33,1.44-2.64,2.4-.71.54-2.4,1.84-2.64,2.64-.06.3-.65.59-.96.48-.1.07-.16.36-.3.42-.51.22-1.06-.25-.9.54Z"/>
  <path class="cls-12" d="M24.43,25.92c.86-.18.67.24.96.72.57.41.97.41,1.2,0-.66-.29-.08-.47.48-.24.46.24.5.54.72.72.43.28.51.76.24,1.44-.7.72-2.17.32-2.81-.3-.07-.07.13-.22-.07-.42-.48-.49-1.1.6-1.07-.75.01-.52.17-.75.35-1.17Z"/>
  <path class="cls-5" d="M16.27,39.6s.09.2.21.21l.03-.45h.23c.09.53-.02.73-.48.96h-.24c.05-.14-.04-.41,0-.6.04-.12.12-.13.24-.12Z"/>
  <path class="cls-9" d="M34.51,26.88c-1.61-.67-2.26-.77-2.88-2.64,1.46.02.67.84.74.94.07.1,1.84,1.09,2.14,1.22v.48Z"/>
  <path class="cls-50" d="M31.87,24c-.47.55-1.08-1.63-.72-1.92.46.09.87,1.74.72,1.92Z"/>
  <path class="cls-50" d="M38.83,27.12c-.25.1-.6-.27-.48.48-.01,0-.23,0-.24,0l-.24-.72c.36,0,.76-.46.96.24Z"/>
  <path class="cls-30" d="M27.07,26.4h-.36c-.16.04-.11.23-.12.24.02.71-1.32.42-.72-.24v-.24c.54-.11.76.01,1.2.24Z"/>
  <path class="cls-37" d="M27.79,27.12c.18.15.7.22.72.25.04.05-.3,1.01-.48,1.19l-.24-1.44Z"/>
  <path class="cls-50" d="M36.43,1.2c.4.19.89.25,1.22.59.35.37-.15,1.46.69.85.62,1.79,2.2,3.15,3.16,4.85.26.47,1.25.81-.27.91-.04-.04.01-.37-.23-.58-.09-.08-1.86-.99-1.93-1.1-.09-.13.09-.8,0-.96-.02-.03-.32.26-.59.01-.5-.47-.74-1.94-1.57-2.17.39-1.06-.11-.59-.18-.84-.1-.35-.28-1.21-.3-1.56Z"/>
  <path class="cls-43" d="M30.91,9.84c.45,1.24,1.37,1.52,2.08,2.24.14.14.08.57.32.76s.64.07.72.12.75,1.15.96,1.44l.72.72c.06.06-.06.42,0,.48.52.59,1.32.91,1.62,1.27s.06.76.12.85c.12.15.62.18.78.52s.03.78.13,1.02c.11.27,1.36.8.23,1.38-.56-.68-1.03-.22-1.16-.3-.08-.05-1.45-1.05-1.48-1.14-.02-.05.56-.63-.36-.72-.08,0-.12.87-.6.48-.1-.08.69-.81-.48-1.2.04-.14.21-.29.09-.48-.39-.31-1.04-1.05-1.29-1.44-.6-.91-1.08-1.96-1.68-2.88-.35-.54-.91-1.59-1.44-1.68-.1-.43.4-.16.48-.24.11-.13-1.23-.9.24-1.2Z"/>
  <path class="cls-46" d="M20.11,37.2c-.04.13.03.33,0,.48-.22.05-.46.24-.72.24-.06-.09-.16-.17-.24-.24.3-.22.47-.51.96-.48Z"/>
  <path class="cls-50" d="M35.71,15.12c-.25-.26-.23-.05-.72-.72l.72.72Z"/>
  <path class="cls-48" d="M26.59,26.64l.24.48c-.4.12-1.08.31-1.4-.05-.11-.13,0-.37-.04-.42.12-.06.41-.27.48-.24.18.07.04.68.72.24Z"/>
</svg>